<?xml version="1.0" standalone="no"?>
<!DOCTYPE svg PUBLIC "-//W3C//DTD SVG 20010904//EN"
 "http://www.w3.org/TR/2001/REC-SVG-20010904/DTD/svg10.dtd">
<svg version="1.0" xmlns="http://www.w3.org/2000/svg"
 width="158.000000pt" height="157.000000pt" viewBox="0 0 158.000000 157.000000"
 preserveAspectRatio="xMidYMid meet">
<metadata>
Created by potrace 1.15, written by Peter Selinger 2001-2017
</metadata>
<g transform="translate(0.000000,157.000000) scale(0.100000,-0.100000)"
fill="#000000" stroke="none">
<path d="M683 1540 c-175 -26 -372 -131 -446 -238 -37 -52 -67 -133 -69 -183
-1 -22 -5 -42 -10 -45 -4 -3 -3 -14 3 -25 7 -15 7 -24 -2 -35 -16 -19 2 -18
40 3 37 22 46 14 27 -23 -17 -31 -14 -42 6 -27 7 5 22 13 32 17 16 5 17 4 7
-8 -7 -8 -10 -20 -6 -26 3 -5 -1 -13 -11 -17 -16 -6 -16 -7 0 -19 17 -12 17
-14 -1 -40 -17 -27 -17 -27 4 -22 20 5 21 3 12 -21 -6 -14 -22 -36 -37 -49
l-27 -23 34 5 c28 5 31 4 22 -8 -9 -10 -8 -15 4 -20 19 -7 19 -30 0 -46 -11
-9 -12 -16 -5 -25 22 -27 -28 -35 -55 -8 -12 11 -32 16 -70 14 -39 -1 -54 2
-59 14 -7 18 -36 20 -36 3 0 -7 3 -23 6 -36 5 -17 9 -20 20 -11 7 6 18 8 23 5
14 -9 2 -36 -16 -36 -57 0 106 -302 202 -375 24 -19 44 -25 81 -25 27 0 59 -3
71 -6 29 -8 39 -41 19 -63 -14 -16 -12 -19 40 -44 52 -26 57 -27 86 -12 28 13
33 13 57 -4 59 -41 128 -52 241 -40 144 16 177 32 255 124 43 51 45 54 45 69
0 8 3 16 8 18 4 1 27 38 52 81 24 42 47 77 52 77 12 0 25 -37 33 -93 4 -26 11
-47 16 -47 12 0 56 50 91 103 29 44 35 63 17 51 -9 -5 -10 7 -5 42 16 117 15
114 51 114 31 0 33 3 45 48 45 177 3 411 -105 577 -155 239 -459 376 -742 335z
m65 -345 c36 -20 83 -38 104 -40 20 -3 48 -23 48 -36 0 -5 -8 -5 -17 -2 -12 5
-15 2 -10 -10 5 -13 -3 -17 -38 -22 -24 -4 -46 -13 -49 -21 -3 -8 -15 -14 -27
-14 -17 0 -20 -4 -15 -22 3 -13 9 -39 12 -59 5 -28 10 -35 27 -34 11 1 22 6
24 12 2 5 15 8 28 5 32 -6 77 6 70 18 -3 6 0 10 9 10 8 0 16 -5 18 -10 2 -6
38 -11 82 -11 63 -1 81 2 88 15 5 9 22 16 39 16 46 0 109 -73 109 -126 0 -8
-4 -13 -9 -9 -13 7 -25 -76 -17 -117 3 -18 8 -46 10 -63 2 -16 6 -52 10 -80 7
-46 6 -48 -7 -26 l-14 23 -22 -23 c-13 -14 -19 -30 -15 -41 3 -10 1 -18 -5
-18 -6 0 -11 -7 -11 -15 0 -17 -20 -56 -34 -66 -5 -4 -5 -12 -2 -18 4 -6 2
-11 -3 -11 -6 0 -11 5 -11 11 0 8 -4 8 -14 -1 -8 -6 -12 -18 -10 -25 4 -9 -1
-13 -16 -12 -17 1 -21 7 -19 32 2 17 -1 37 -5 44 -6 9 -3 18 7 26 20 15 23 81
4 98 -72 68 -85 76 -117 64 -22 -8 -35 -9 -48 -1 -13 8 -20 8 -30 -2 -16 -17
-15 -24 5 -46 20 -22 37 -24 29 -3 -3 8 -1 15 4 15 6 0 10 -3 11 -7 0 -5 2
-15 4 -24 2 -13 -7 -16 -47 -18 -28 -1 -56 -5 -62 -9 -6 -3 -27 -7 -46 -8
-114 -5 -182 -5 -187 0 -3 3 8 13 26 23 17 10 31 25 31 33 1 12 3 12 13 -2 7
-9 26 -19 43 -22 16 -4 23 -3 17 0 -26 12 -12 21 33 22 26 0 50 6 54 12 6 9
11 7 19 -6 9 -16 12 -17 20 -4 7 9 6 17 -1 21 -7 4 -6 9 2 14 8 5 6 11 -6 20
-16 12 -16 14 4 40 12 16 20 31 17 34 -4 3 -10 0 -14 -8 -6 -10 -25 -11 -75
-6 -46 5 -70 4 -81 -5 -9 -8 -28 -9 -55 -5 -42 7 -54 -7 -29 -32 9 -9 5 -20
-15 -43 -17 -21 -26 -26 -26 -16 0 15 -3 15 -27 1 -77 -41 -93 -82 -64 -153
15 -36 47 -46 38 -12 -7 27 25 45 52 30 24 -12 54 -13 47 -1 -12 19 24 27 153
36 80 6 97 5 106 -9 10 -12 18 -13 48 -5 20 5 39 14 42 19 4 6 22 10 41 10 25
0 34 -5 36 -17 3 -35 -3 -57 -19 -75 -9 -10 -18 -31 -19 -45 -2 -15 -8 -29
-14 -31 -5 -2 -10 -12 -10 -23 0 -10 -9 -24 -19 -31 -16 -10 -18 -15 -8 -28 7
-8 2 -7 -10 4 -12 10 -29 16 -38 13 -20 -8 -19 -25 2 -23 10 0 19 -8 21 -19 3
-16 1 -18 -9 -8 -18 18 -32 16 -25 -2 3 -8 1 -15 -5 -15 -6 0 -8 -7 -5 -16 5
-14 4 -15 -9 -4 -13 11 -15 10 -10 -1 4 -10 -2 -15 -16 -16 -11 -1 -27 -10
-35 -20 -7 -10 -14 -13 -14 -6 0 11 -80 14 -80 2 0 -4 -10 -6 -22 -5 -15 1
-23 7 -22 19 1 10 -5 17 -17 17 -11 0 -19 4 -19 9 0 6 -9 8 -20 6 -11 -2 -20
0 -20 6 0 5 8 9 18 10 13 0 12 3 -6 11 -13 7 -26 24 -29 40 -5 23 -8 26 -24
17 -24 -12 -25 -1 -1 18 16 14 16 14 -1 9 -11 -3 -16 -2 -12 4 3 6 -1 13 -9
16 -10 4 -16 18 -16 35 0 30 -23 41 -33 17 -3 -8 -6 -5 -6 5 -1 10 -6 15 -11
12 -6 -4 -8 -11 -5 -16 4 -5 1 -9 -5 -9 -7 0 -9 7 -6 16 4 9 0 26 -7 38 -8 12
-20 45 -26 74 -12 47 -16 52 -40 52 -25 0 -28 4 -29 36 -1 20 5 49 13 65 9 16
15 55 15 91 0 35 3 94 7 131 l6 68 23 -22 c24 -23 64 -19 64 7 0 19 26 18 34
-2 5 -12 15 -14 43 -10 21 3 50 5 64 6 25 0 27 4 31 48 3 30 0 53 -9 63 -19
22 -17 43 4 35 15 -6 15 -5 -1 13 -14 15 -15 23 -6 40 6 12 17 21 24 21 8 0
19 14 26 30 14 34 29 37 68 15z m614 -431 c2 -12 11 -18 25 -17 17 2 23 -5 28
-28 4 -16 16 -38 27 -49 24 -22 20 -40 -15 -59 -34 -18 -75 -7 -87 24 -6 15
-15 23 -23 19 -10 -3 -13 5 -10 33 2 38 4 46 17 95 7 22 10 25 21 14 7 -7 15
-21 17 -32z"/>
</g>
</svg>
